<svg version="1.1" id="Layer_1" xmlns="http://www.w3.org/2000/svg" xmlns:xlink="http://www.w3.org/1999/xlink" x="0px" y="0px"
	 width="100%" viewBox="0 0 849 634" enable-background="new 0 0 849 634" xml:space="preserve">
<path fill="#FBF8F7" opacity="1.000000" stroke="none" 
	d="
M798.000000,635.000000 
	C532.000000,635.000000 266.500000,635.000000 1.000000,635.000000 
	C1.000000,423.666656 1.000000,212.333328 1.000000,1.000000 
	C284.000000,1.000000 567.000000,1.000000 850.000000,1.000000 
	C850.000000,212.333328 850.000000,423.666656 850.000000,635.000000 
	C832.833313,635.000000 815.666687,635.000000 798.000000,635.000000 
M571.288391,341.257111 
	C570.610291,340.541229 569.851257,339.885681 569.266113,339.100586 
	C557.920166,323.878845 546.598938,308.638672 535.256531,293.414307 
	C534.323120,292.161438 533.273743,290.994965 532.083252,289.551941 
	C529.709106,294.601959 530.065735,346.588501 533.408203,349.268219 
	C533.408203,332.491425 533.408203,315.714630 533.408203,298.937866 
	C533.906494,298.872345 534.404724,298.806824 534.903015,298.741333 
	C535.752258,299.689087 536.682556,300.576660 537.438354,301.593842 
	C545.186523,312.021515 552.933777,322.450043 560.628052,332.917511 
	C574.540466,351.844269 570.486389,349.205475 593.719543,349.505554 
	C596.687256,349.543854 598.174988,348.533569 599.291260,345.795319 
	C605.326050,330.990509 611.528137,316.253784 617.713745,301.510834 
	C618.419922,299.827545 619.382690,298.251953 620.771179,295.577332 
	C625.002747,305.694275 628.612061,314.622742 632.463074,323.445709 
	C636.268555,332.164368 639.289490,341.282532 643.707031,349.707703 
	C644.575745,349.313721 645.444458,348.919708 646.313110,348.525726 
	C638.056763,328.711884 629.800415,308.898041 621.544067,289.084198 
	C620.970764,289.140289 620.397400,289.196350 619.824097,289.252441 
	C618.807800,291.243103 617.658081,293.177826 616.796448,295.233337 
	C610.164612,311.054810 603.658447,326.929749 596.888977,342.691772 
	C596.201904,344.291443 594.131653,346.168732 592.534729,346.339325 
	C588.090820,346.814026 583.538879,346.700592 579.066772,346.348236 
	C575.801025,346.090912 572.534241,345.164673 572.368713,340.296661 
	C575.556702,340.283966 575.437683,338.096008 575.431641,335.822144 
	C575.395081,322.042603 575.432495,308.262817 575.383789,294.483307 
	C575.378601,293.022644 574.975830,291.563354 574.757507,290.103424 
	C574.218140,290.097504 573.678772,290.091553 573.139465,290.085602 
	C572.895081,291.527344 572.469666,292.965363 572.440002,294.411530 
	C572.348022,298.892181 572.443420,303.376251 572.399292,307.858368 
	C572.290405,318.914062 572.144348,329.969360 571.288391,341.257111 
M263.725708,337.824310 
	C274.526154,351.479706 293.319397,353.740204 306.246277,342.853180 
	C307.354614,341.919739 307.964996,340.395020 308.806671,339.144928 
	C308.387024,338.769226 307.967377,338.393494 307.547729,338.017792 
	C306.268555,338.893097 304.944641,339.710114 303.717285,340.652924 
	C294.264740,347.914124 282.260620,348.333649 272.506104,341.714111 
	C263.276550,335.450806 259.037659,323.561615 262.121826,312.588470 
	C265.263733,301.409882 274.997711,293.504486 286.756653,293.397614 
	C309.918945,293.187103 333.086273,293.173889 356.248138,293.411041 
	C367.868652,293.529999 377.489655,301.263184 380.715515,312.162445 
	C384.005280,323.277771 379.882721,335.081329 370.380127,341.754272 
	C360.538727,348.665039 346.864197,347.752686 338.084900,339.599457 
	C328.642395,330.830292 326.570648,317.324280 332.896820,306.256714 
	C333.738556,304.784180 334.223602,303.107727 334.873810,301.525696 
	C334.448608,301.292114 334.023438,301.058502 333.598267,300.824921 
	C332.780762,301.489288 331.752533,302.008606 331.179535,302.841248 
	C327.073486,308.807739 324.991669,315.419281 325.853760,322.668762 
	C327.843842,339.403931 341.426300,350.665771 357.999756,349.513489 
	C373.473969,348.437622 385.620941,335.014343 385.368530,319.269043 
	C385.113770,303.377502 372.237061,290.151978 355.874268,289.907715 
	C332.881958,289.564453 309.875000,289.521881 286.885559,289.951843 
	C274.984955,290.174408 265.867950,296.138367 260.638672,307.005981 
	C255.600540,317.476257 256.595673,327.681610 263.725708,337.824310 
M410.595673,309.573151 
	C406.982269,301.710449 409.904724,295.603546 418.226593,293.922607 
	C425.399048,292.473785 432.103668,293.578827 438.159576,297.956818 
	C439.259979,298.752350 440.689545,299.092621 441.967133,299.643066 
	C442.258087,297.982544 442.025665,297.186371 441.518707,296.649353 
	C435.043060,289.789246 420.458771,287.858765 412.219849,292.728668 
	C403.362213,297.964325 403.087372,309.443237 411.851990,314.813019 
	C414.798431,316.618195 418.169739,317.736481 421.364380,319.128601 
	C425.926910,321.116852 430.673676,322.758820 435.028351,325.125336 
	C439.096008,327.335938 441.157623,331.133453 440.740234,335.963562 
	C440.323334,340.787964 437.075989,343.352875 433.016541,344.846802 
	C424.357300,348.033447 416.355896,346.209625 408.881683,341.130096 
	C407.465576,340.167694 405.825317,339.535034 404.288483,338.750244 
	C404.041656,339.133636 403.794861,339.517029 403.548035,339.900452 
	C404.168030,340.775970 404.632172,341.841522 405.432159,342.497650 
	C413.446960,349.071320 422.574615,351.134430 432.559906,348.488373 
	C439.521301,346.643616 443.994324,341.693054 444.351898,335.828217 
	C444.768860,328.989502 441.031281,324.487946 435.334900,321.534241 
	C431.810059,319.706543 427.939240,318.558441 424.337555,316.863434 
	C419.866669,314.759399 415.513458,312.405487 410.595673,309.573151 
M477.098511,306.295074 
	C471.253937,320.411102 465.409363,334.527130 459.564789,348.643158 
	C460.189514,348.979767 460.814270,349.316376 461.438995,349.653015 
	C462.369293,348.392883 463.591431,347.256256 464.184814,345.853638 
	C470.351166,331.277496 476.403748,316.653290 482.525208,302.058075 
	C483.300903,300.208649 484.290588,298.448944 485.612000,295.776245 
	C494.047028,314.277832 500.493561,332.407196 508.643707,349.746155 
	C509.541382,349.354584 510.439026,348.963043 511.336700,348.571472 
	C503.090179,328.743317 494.843658,308.915192 486.597137,289.087036 
	C485.921967,289.061737 485.246826,289.036438 484.571655,289.011108 
	C482.183807,294.537842 479.795990,300.064575 477.098511,306.295074 
M204.956146,332.433319 
	C204.956146,335.631897 204.956146,338.830475 204.956146,342.029053 
	C205.658234,342.063110 206.360321,342.097168 207.062424,342.131226 
	C209.767990,335.533691 207.070480,328.192139 208.731522,321.206543 
	C219.098145,319.672516 229.821579,322.176758 240.130341,319.876465 
	C240.122604,319.145325 240.114853,318.414215 240.107117,317.683075 
	C229.675552,317.683075 219.244003,317.683075 208.218216,317.683075 
	C208.218216,313.345215 208.493286,310.037415 208.138306,306.798676 
	C207.805313,303.760651 209.811127,299.994873 204.956131,296.587677 
	C204.956131,309.046936 204.956131,320.249512 204.956146,332.433319 
M228.445160,289.774689 
	C221.813538,289.775848 215.179581,289.687561 208.552521,289.862213 
	C207.387314,289.892914 206.251144,291.024933 205.101562,291.648346 
	C206.296112,292.217102 207.483780,293.261780 208.686325,293.279205 
	C218.134384,293.416199 227.585663,293.394928 237.034958,293.311554 
	C238.290436,293.300507 239.540405,292.666107 240.792923,292.320404 
	C240.760483,291.629669 240.728027,290.938934 240.695572,290.248199 
	C236.937225,290.090668 233.178864,289.933105 228.445160,289.774689 
M217.520676,349.630829 
	C225.199509,349.547424 232.878342,349.464020 240.557175,349.380615 
	C236.396881,345.318970 207.555954,345.693756 203.986176,349.630280 
	C208.895737,349.630280 212.714325,349.630280 217.520676,349.630829 
M496.825836,331.643799 
	C489.199829,329.244446 481.651062,330.488190 474.094849,332.037048 
	C481.680328,333.969208 489.251617,335.559509 496.825836,331.643799 
M631.368347,332.243713 
	C630.044800,331.653687 628.744812,330.628113 627.393250,330.554901 
	C623.260742,330.330963 619.107300,330.416504 614.964417,330.499176 
	C613.144897,330.535461 611.331116,330.856262 609.514709,331.047852 
	C609.528625,331.719971 609.542603,332.392090 609.556519,333.064209 
	C616.662231,334.461334 623.817566,334.824310 631.368347,332.243713 
z"/>
<path fill="#80AB55" opacity="1.000000" stroke="none" 
	d="
M263.506897,337.540558 
	C256.595673,327.681610 255.600540,317.476257 260.638672,307.005981 
	C265.867950,296.138367 274.984955,290.174408 286.885559,289.951843 
	C309.875000,289.521881 332.881958,289.564453 355.874268,289.907715 
	C372.237061,290.151978 385.113770,303.377502 385.368530,319.269043 
	C385.620941,335.014343 373.473969,348.437622 357.999756,349.513489 
	C341.426300,350.665771 327.843842,339.403931 325.853760,322.668762 
	C324.991669,315.419281 327.073486,308.807739 331.179535,302.841248 
	C331.752533,302.008606 332.780762,301.489288 333.598267,300.824921 
	C334.023438,301.058502 334.448608,301.292114 334.873810,301.525696 
	C334.223602,303.107727 333.738556,304.784180 332.896820,306.256714 
	C326.570648,317.324280 328.642395,330.830292 338.084900,339.599457 
	C346.864197,347.752686 360.538727,348.665039 370.380127,341.754272 
	C379.882721,335.081329 384.005280,323.277771 380.715515,312.162445 
	C377.489655,301.263184 367.868652,293.529999 356.248138,293.411041 
	C333.086273,293.173889 309.918945,293.187103 286.756653,293.397614 
	C274.997711,293.504486 265.263733,301.409882 262.121826,312.588470 
	C259.037659,323.561615 263.276550,335.450806 272.506104,341.714111 
	C282.260620,348.333649 294.264740,347.914124 303.717285,340.652924 
	C304.944641,339.710114 306.268555,338.893097 307.547729,338.017792 
	C307.967377,338.393494 308.387024,338.769226 308.806671,339.144928 
	C307.964996,340.395020 307.354614,341.919739 306.246277,342.853180 
	C293.319397,353.740204 274.526154,351.479706 263.506897,337.540558 
z"/>
<path fill="#80AB55" opacity="1.000000" stroke="none" 
	d="
M571.985046,340.997437 
	C572.534241,345.164673 575.801025,346.090912 579.066772,346.348236 
	C583.538879,346.700592 588.090820,346.814026 592.534729,346.339325 
	C594.131653,346.168732 596.201904,344.291443 596.888977,342.691772 
	C603.658447,326.929749 610.164612,311.054810 616.796448,295.233337 
	C617.658081,293.177826 618.807800,291.243103 619.824097,289.252441 
	C620.397400,289.196350 620.970764,289.140289 621.544067,289.084198 
	C629.800415,308.898041 638.056763,328.711884 646.313110,348.525726 
	C645.444458,348.919708 644.575745,349.313721 643.707031,349.707703 
	C639.289490,341.282532 636.268555,332.164368 632.463074,323.445709 
	C628.612061,314.622742 625.002747,305.694275 620.771179,295.577332 
	C619.382690,298.251953 618.419922,299.827545 617.713745,301.510834 
	C611.528137,316.253784 605.326050,330.990509 599.291260,345.795319 
	C598.174988,348.533569 596.687256,349.543854 593.719543,349.505554 
	C570.486389,349.205475 574.540466,351.844269 560.628052,332.917511 
	C552.933777,322.450043 545.186523,312.021515 537.438354,301.593842 
	C536.682556,300.576660 535.752258,299.689087 534.903015,298.741333 
	C534.404724,298.806824 533.906494,298.872345 533.408203,298.937866 
	C533.408203,315.714630 533.408203,332.491425 533.408203,349.268219 
	C530.065735,346.588501 529.709106,294.601959 532.083252,289.551941 
	C533.273743,290.994965 534.323120,292.161438 535.256531,293.414307 
	C546.598938,308.638672 557.920166,323.878845 569.266113,339.100586 
	C569.851257,339.885681 570.610291,340.541229 571.645752,341.131042 
	C572.003052,341.004974 571.985046,340.997437 571.985046,340.997437 
z"/>
<path fill="#80AB55" opacity="1.000000" stroke="none" 
	d="
M410.852539,309.866333 
	C415.513458,312.405487 419.866669,314.759399 424.337555,316.863434 
	C427.939240,318.558441 431.810059,319.706543 435.334900,321.534241 
	C441.031281,324.487946 444.768860,328.989502 444.351898,335.828217 
	C443.994324,341.693054 439.521301,346.643616 432.559906,348.488373 
	C422.574615,351.134430 413.446960,349.071320 405.432159,342.497650 
	C404.632172,341.841522 404.168030,340.775970 403.548035,339.900452 
	C403.794861,339.517029 404.041656,339.133636 404.288483,338.750244 
	C405.825317,339.535034 407.465576,340.167694 408.881683,341.130096 
	C416.355896,346.209625 424.357300,348.033447 433.016541,344.846802 
	C437.075989,343.352875 440.323334,340.787964 440.740234,335.963562 
	C441.157623,331.133453 439.096008,327.335938 435.028351,325.125336 
	C430.673676,322.758820 425.926910,321.116852 421.364380,319.128601 
	C418.169739,317.736481 414.798431,316.618195 411.851990,314.813019 
	C403.087372,309.443237 403.362213,297.964325 412.219849,292.728668 
	C420.458771,287.858765 435.043060,289.789246 441.518707,296.649353 
	C442.025665,297.186371 442.258087,297.982544 441.967133,299.643066 
	C440.689545,299.092621 439.259979,298.752350 438.159576,297.956818 
	C432.103668,293.578827 425.399048,292.473785 418.226593,293.922607 
	C409.904724,295.603546 406.982269,301.710449 410.852539,309.866333 
z"/>
<path fill="#80AB55" opacity="1.000000" stroke="none" 
	d="
M477.253326,305.943176 
	C479.795990,300.064575 482.183807,294.537842 484.571655,289.011108 
	C485.246826,289.036438 485.921967,289.061737 486.597137,289.087036 
	C494.843658,308.915192 503.090179,328.743317 511.336700,348.571472 
	C510.439026,348.963043 509.541382,349.354584 508.643707,349.746155 
	C500.493561,332.407196 494.047028,314.277832 485.612000,295.776245 
	C484.290588,298.448944 483.300903,300.208649 482.525208,302.058075 
	C476.403748,316.653290 470.351166,331.277496 464.184814,345.853638 
	C463.591431,347.256256 462.369293,348.392883 461.438995,349.653015 
	C460.814270,349.316376 460.189514,348.979767 459.564789,348.643158 
	C465.409363,334.527130 471.253937,320.411102 477.253326,305.943176 
z"/>
<path fill="#80AB55" opacity="1.000000" stroke="none" 
	d="
M204.956146,331.942688 
	C204.956131,320.249512 204.956131,309.046936 204.956131,296.587677 
	C209.811127,299.994873 207.805313,303.760651 208.138306,306.798676 
	C208.493286,310.037415 208.218216,313.345215 208.218216,317.683075 
	C219.244003,317.683075 229.675552,317.683075 240.107117,317.683075 
	C240.114853,318.414215 240.122604,319.145325 240.130341,319.876465 
	C229.821579,322.176758 219.098145,319.672516 208.731522,321.206543 
	C207.070480,328.192139 209.767990,335.533691 207.062424,342.131226 
	C206.360321,342.097168 205.658234,342.063110 204.956146,342.029053 
	C204.956146,338.830475 204.956146,335.631897 204.956146,331.942688 
z"/>
<path fill="#80AB55" opacity="1.000000" stroke="none" 
	d="
M572.008179,341.014893 
	C572.144348,329.969360 572.290405,318.914062 572.399292,307.858368 
	C572.443420,303.376251 572.348022,298.892181 572.440002,294.411530 
	C572.469666,292.965363 572.895081,291.527344 573.139465,290.085602 
	C573.678772,290.091553 574.218140,290.097504 574.757507,290.103424 
	C574.975830,291.563354 575.378601,293.022644 575.383789,294.483307 
	C575.432495,308.262817 575.395081,322.042603 575.431641,335.822144 
	C575.437683,338.096008 575.556702,340.283966 572.176880,340.647034 
	C571.985046,340.997437 572.003052,341.004974 572.008179,341.014893 
z"/>
<path fill="#80AB55" opacity="1.000000" stroke="none" 
	d="
M228.932831,289.775146 
	C233.178864,289.933105 236.937225,290.090668 240.695572,290.248199 
	C240.728027,290.938934 240.760483,291.629669 240.792923,292.320404 
	C239.540405,292.666107 238.290436,293.300507 237.034958,293.311554 
	C227.585663,293.394928 218.134384,293.416199 208.686325,293.279205 
	C207.483780,293.261780 206.296112,292.217102 205.101562,291.648346 
	C206.251144,291.024933 207.387314,289.892914 208.552521,289.862213 
	C215.179581,289.687561 221.813538,289.775848 228.932831,289.775146 
z"/>
<path fill="#80AB55" opacity="1.000000" stroke="none" 
	d="
M217.026794,349.630554 
	C212.714325,349.630280 208.895737,349.630280 203.986176,349.630280 
	C207.555954,345.693756 236.396881,345.318970 240.557175,349.380615 
	C232.878342,349.464020 225.199509,349.547424 217.026794,349.630554 
z"/>
<path fill="#80AB55" opacity="1.000000" stroke="none" 
	d="
M496.840088,331.957886 
	C489.251617,335.559509 481.680328,333.969208 474.094849,332.037048 
	C481.651062,330.488190 489.199829,329.244446 496.840088,331.957886 
z"/>
<path fill="#80AB55" opacity="1.000000" stroke="none" 
	d="
M631.226318,332.557098 
	C623.817566,334.824310 616.662231,334.461334 609.556519,333.064209 
	C609.542603,332.392090 609.528625,331.719971 609.514709,331.047852 
	C611.331116,330.856262 613.144897,330.535461 614.964417,330.499176 
	C619.107300,330.416504 623.260742,330.330963 627.393250,330.554901 
	C628.744812,330.628113 630.044800,331.653687 631.226318,332.557098 
z"/>
</svg>