<svg version="1.1" id="Layer_1" xmlns="http://www.w3.org/2000/svg" xmlns:xlink="http://www.w3.org/1999/xlink" x="0px" y="0px"
	 width="100%" viewBox="0 0 510 149" enable-background="new 0 0 510 149" xml:space="preserve">
<path fill="#FFFFFF" opacity="1.000000" stroke="none" 
	d="
M364.000000,150.000000 
	C244.166748,150.000000 124.833481,149.979568 5.500347,150.094360 
	C1.751363,150.097977 0.890941,149.251816 0.902781,145.499954 
	C1.051108,98.500458 1.035320,51.500240 0.916750,4.500573 
	C0.909227,1.518551 1.516858,0.917354 4.499675,0.918975 
	C172.166183,1.010071 339.832733,1.010031 507.499237,0.919219 
	C510.478943,0.917605 511.090973,1.514368 511.083466,4.499476 
	C510.964783,51.832478 510.964996,99.165947 511.083130,146.498947 
	C511.090576,149.479614 510.486053,150.090912 507.500641,150.083481 
	C459.833984,149.965012 412.166962,150.000000 364.000000,150.000000 
z"/>
<path fill="#A9B76A" opacity="1.000000" stroke="none" 
	d="
M186.952850,97.439346 
	C203.638901,99.833336 216.834106,89.546959 217.933182,73.723885 
	C218.933990,59.315147 206.708191,47.097298 191.099701,47.054726 
	C169.779510,46.996571 148.457886,46.906090 127.139061,47.087486 
	C112.252235,47.214153 101.016083,58.933094 101.523170,73.313408 
	C102.031898,87.740372 113.756409,98.672615 128.081345,98.025536 
	C133.756256,97.769188 138.710632,95.624870 143.204910,92.193260 
	C144.183563,91.446030 145.311188,89.107529 146.753708,91.055099 
	C147.928070,92.640617 145.863190,93.671677 144.810349,94.552956 
	C138.144791,100.132225 130.376358,102.032188 121.923935,100.607529 
	C107.781876,98.223862 97.278564,84.889839 98.271492,70.937523 
	C99.340103,55.921654 111.653305,44.168812 126.650528,44.105984 
	C148.636765,44.013882 170.623886,44.025169 192.610214,44.104610 
	C205.196640,44.150085 216.451675,52.733051 219.799713,64.574615 
	C223.366455,77.189735 218.317474,90.041412 207.069260,96.978676 
	C196.552002,103.465118 182.571075,102.058601 173.261505,93.577545 
	C163.697525,84.864708 161.185349,71.478218 166.934906,59.805435 
	C167.301559,59.061024 167.637421,58.249092 168.191605,57.660690 
	C169.230453,56.557693 169.609665,53.773651 171.593307,54.855404 
	C173.896347,56.111332 171.542557,57.741257 170.847748,58.968193 
	C161.887299,74.790703 169.128723,92.541939 186.952850,97.439346 
z"/>
<path fill="#AAB86C" opacity="1.000000" stroke="none" 
	d="
M414.955811,98.074921 
	C421.329742,99.267937 424.140137,96.571739 426.272644,91.081520 
	C432.054260,76.196655 438.490417,61.565800 444.691101,46.844357 
	C445.244293,45.530979 445.306213,43.501835 447.182190,43.516891 
	C448.994659,43.531448 449.204102,45.553822 449.747620,46.839291 
	C456.745331,63.389622 463.682007,79.965820 470.592163,96.552963 
	C471.124451,97.830704 472.627350,99.693123 470.856995,100.514214 
	C468.567535,101.576073 468.438934,98.963440 467.860077,97.595314 
	C461.895325,83.498199 455.991821,69.375168 450.040558,55.272316 
	C449.291382,53.497036 448.897217,51.507542 446.846283,49.659210 
	C444.152069,55.992279 441.559570,62.047066 438.998566,68.115150 
	C434.856934,77.928368 430.665070,87.721512 426.655548,97.588615 
	C425.639618,100.088715 424.343475,101.533852 421.520172,101.048431 
	C421.358307,101.020607 421.187500,101.045677 421.020844,101.045036 
	C399.904388,100.963699 402.785095,102.890640 389.890533,85.437477 
	C382.566956,75.524803 375.200256,65.643829 367.807404,55.782761 
	C366.865204,54.525921 366.308014,52.804626 363.754395,52.190231 
	C363.754395,57.143936 363.754456,61.874699 363.754395,66.605461 
	C363.754211,76.770798 363.776276,86.936241 363.727386,97.101341 
	C363.720825,98.466415 364.312286,100.643173 362.196198,100.671875 
	C360.119080,100.700058 360.529480,98.528381 360.526001,97.141525 
	C360.484863,80.810440 360.494232,64.479202 360.505890,48.148014 
	C360.506836,46.839325 360.208221,45.105659 361.590485,44.558266 
	C363.416138,43.835285 364.110291,45.772896 364.943451,46.886673 
	C375.419037,60.890308 386.137268,74.726341 396.161469,89.047607 
	C400.864563,95.766792 406.234863,99.391640 414.955811,98.074921 
z"/>
<path fill="#AAB76B" opacity="1.000000" stroke="none" 
	d="
M241.506012,52.681503 
	C245.387222,42.332344 265.332642,40.937859 275.015930,50.313305 
	C275.639160,50.916729 276.252228,51.731041 275.578766,52.450771 
	C274.258240,53.862026 273.188263,52.561600 272.148468,51.827942 
	C265.945923,47.451649 259.171844,46.036381 251.787170,47.937969 
	C247.636627,49.006756 244.515762,51.196781 243.838669,55.805973 
	C243.142441,60.545292 245.012070,63.991924 249.336807,65.905411 
	C253.434448,67.718407 257.681824,69.190071 261.811371,70.934875 
	C264.867584,72.226166 267.984283,73.474281 270.818268,75.169296 
	C275.625763,78.044739 278.201355,82.491081 277.640839,88.122574 
	C277.096069,93.596336 273.581390,97.152664 268.610229,99.099701 
	C258.545441,103.041756 249.366150,100.830093 240.884766,94.663010 
	C239.866486,93.922607 238.239716,92.978729 239.319443,91.546562 
	C240.451996,90.044319 241.661682,91.519691 242.685043,92.264351 
	C249.648514,97.331551 257.227814,99.582275 265.705658,96.957329 
	C269.984467,95.632500 273.741455,93.491264 274.358612,88.388481 
	C275.001129,83.075455 272.421539,79.461006 268.019684,76.939819 
	C262.206970,73.610550 255.544312,72.352196 249.549866,69.470764 
	C241.694168,65.694649 239.667221,61.542515 241.506012,52.681503 
z"/>
<path fill="#A9B669" opacity="1.000000" stroke="none" 
	d="
M331.591675,82.496910 
	C326.877319,71.270393 322.324493,60.391869 317.383545,48.585979 
	C313.026459,58.919605 308.991241,68.483955 304.960876,78.050346 
	C302.122070,84.788391 299.311371,91.538437 296.433350,98.259666 
	C295.955475,99.375587 295.712616,101.341026 293.927826,100.627892 
	C292.247467,99.956482 293.157196,98.406036 293.665344,97.193756 
	C300.796844,80.180649 307.920502,63.164249 315.075592,46.161068 
	C315.570160,44.985924 315.902008,43.261707 317.508575,43.383270 
	C319.035095,43.498775 319.249756,45.246094 319.746277,46.428101 
	C326.825775,63.281208 333.882935,80.143753 340.897614,97.023926 
	C341.355957,98.126869 342.724548,99.699318 341.009247,100.514175 
	C338.901184,101.515594 338.673248,99.160614 338.157257,98.003601 
	C335.923553,92.994850 333.871399,87.905151 331.591675,82.496910 
z"/>
<path fill="#A8B669" opacity="1.000000" stroke="none" 
	d="
M59.042641,70.085541 
	C65.361237,70.085709 71.187119,70.051292 77.012039,70.111153 
	C78.400902,70.125420 80.705780,69.531898 80.732841,71.464516 
	C80.768082,73.980247 78.254753,72.968170 76.837456,72.988464 
	C69.515427,73.093269 62.185413,73.208275 54.870022,72.964539 
	C51.313427,72.846031 50.239029,74.090195 50.416908,77.522011 
	C50.649075,82.001167 50.471424,86.505508 50.353958,90.995972 
	C50.325699,92.076286 50.287167,93.634460 48.701435,93.614075 
	C47.162952,93.594284 47.107521,92.153122 47.105831,90.998848 
	C47.087795,78.682220 47.089245,66.365517 47.116333,54.048916 
	C47.118900,52.881557 47.300797,51.469440 48.830971,51.545753 
	C50.368645,51.622440 50.353584,53.165321 50.390144,54.257088 
	C50.501495,57.582302 50.796154,60.952702 50.402889,64.231560 
	C49.800869,69.250977 51.895145,70.858002 56.554634,70.100006 
	C57.203239,69.994492 57.883804,70.085472 59.042641,70.085541 
z"/>
<path fill="#A8B668" opacity="1.000000" stroke="none" 
	d="
M403.916748,78.983948 
	C403.916626,82.138840 403.988525,84.799690 403.888916,87.454117 
	C403.830841,89.002121 404.560120,91.555069 402.466522,91.634552 
	C400.079407,91.725166 401.018433,89.123611 401.009186,87.685059 
	C400.931183,75.557724 400.964600,63.429676 400.964569,51.301846 
	C400.964539,50.305038 400.861816,49.294819 400.989655,48.314678 
	C401.165649,46.965412 400.224792,44.615749 402.240173,44.608952 
	C404.517090,44.601273 403.806366,47.055767 403.892059,48.584312 
	C403.994202,50.406078 403.916748,52.237930 403.916779,54.065411 
	C403.916809,62.206013 403.916809,70.346611 403.916748,78.983948 
z"/>
<path fill="#A9B669" opacity="1.000000" stroke="none" 
	d="
M67.989441,44.085121 
	C71.978218,44.086369 75.469696,44.079037 78.961082,44.093525 
	C80.133980,44.098392 81.560555,44.098396 81.587479,45.631428 
	C81.608467,46.826580 80.381577,47.023174 79.331383,47.023468 
	C69.522156,47.026199 59.712925,47.028469 49.903698,47.025913 
	C48.882217,47.025650 47.662357,46.962013 47.572739,45.725471 
	C47.452221,44.062523 48.884781,44.103081 50.034916,44.098755 
	C55.853916,44.076870 61.673035,44.086494 67.989441,44.085121 
z"/>
<path fill="#A9B669" opacity="1.000000" stroke="none" 
	d="
M52.307465,98.084496 
	C61.079659,98.084534 69.391541,98.061539 77.703056,98.106987 
	C79.102280,98.114639 81.417702,97.528641 81.460754,99.421326 
	C81.517235,101.904427 78.998154,100.978355 77.559883,100.993263 
	C68.916580,101.082878 60.271580,101.074310 51.627941,101.002876 
	C50.139240,100.990578 47.551750,101.768501 47.663425,99.442513 
	C47.768986,97.243904 50.344486,98.374702 52.307465,98.084496 
z"/>
<path fill="#B0BC76" opacity="1.000000" stroke="none" 
	d="
M309.550262,82.931564 
	C315.129974,82.933403 320.268768,82.918205 325.407166,82.956184 
	C326.334961,82.963036 327.646423,82.719543 327.819885,84.040520 
	C328.041443,85.727890 326.605377,85.757782 325.473389,85.765762 
	C320.003632,85.804283 314.533325,85.802811 309.063507,85.768532 
	C307.906006,85.761284 306.505493,85.642761 306.693207,84.017670 
	C306.847076,82.685593 308.178040,83.044434 309.550262,82.931564 
z"/>
<path fill="#B1BD77" opacity="1.000000" stroke="none" 
	d="
M445.115906,85.806381 
	C442.052643,85.176857 437.242371,87.214630 437.244476,84.422760 
	C437.246918,81.181046 441.824829,83.364319 444.338257,83.026772 
	C447.438263,82.610443 450.639618,82.849762 453.791443,82.963982 
	C455.140839,83.012886 457.485260,82.212791 457.504883,84.210701 
	C457.528870,86.651695 455.022003,85.681244 453.560852,85.763924 
	C450.911682,85.913811 448.247986,85.806496 445.115906,85.806381 
z"/>
</svg>